{
  "asset": {
    "generator": "Khronos glTF Blender I/O v1.5.17",
    "version": "2.0"
  },
  "scene": 0,
  "scenes": [
    {
      "name": "Scene",
      "nodes": [
        0
      ]
    }
  ],
  "nodes": [
    {
      "mesh": 0,
      "name": "sphere_gltf"
    }
  ],
  "materials": [
    {
      "doubleSided": true,
      "name": "blue_floor_tiles_01",
      "normalTexture": {
        "index": 0
      },
      "pbrMetallicRoughness": {
        "baseColorTexture": {
          "index": 1
        },
        "metallicFactor": 0,
        "metallicRoughnessTexture": {
          "index": 2
        }
      }
    }
  ],
  "meshes": [
    {
      "name": "Sphere.001",
      "primitives": [
        {
          "attributes": {
            "POSITION": 0,
            "NORMAL": 1,
            "TEXCOORD_0": 2
          },
          "indices": 3,
          "material": 0
        }
      ]
    }
  ],
  "textures": [
    {
      "sampler": 0,
      "source": 0
    },
    {
      "sampler": 0,
      "source": 1
    },
    {
      "sampler": 0,
      "source": 2
    }
  ],
  "images": [
    {
      "mimeType": "image/jpeg",
      "name": "blue_floor_tiles_01_nor_gl_4k",
      "uri": "textures/blue_floor_tiles_01_nor_gl_2k.jpg"
    },
    {
      "mimeType": "image/jpeg",
      "name": "blue_floor_tiles_01_diff_4k",
      "uri": "textures/blue_floor_tiles_01_diff_2k.jpg"
    },
    {
      "mimeType": "image/jpeg",
      "name": "blue_floor_tiles_01_rough_4k",
      "uri": "textures/blue_floor_tiles_01_rough_2k.jpg"
    }
  ],
  "accessors": [
    {
      "bufferView": 0,
      "componentType": 5126,
      "count": 53937,
      "max": [
        1.0183161497116089,
        1.0169302225112915,
        1.0158812999725342
      ],
      "min": [
        -1.0183161497116089,
        -1.0191736221313477,
        -1.0158650875091553
      ],
      "type": "VEC3"
    },
    {
      "bufferView": 1,
      "componentType": 5126,
      "count": 53937,
      "type": "VEC3"
    },
    {
      "bufferView": 2,
      "componentType": 5126,
      "count": 53937,
      "type": "VEC2"
    },
    {
      "bufferView": 3,
      "componentType": 5123,
      "count": 322170,
      "type": "SCALAR"
    }
  ],
  "bufferViews": [
    {
      "buffer": 0,
      "byteLength": 647244,
      "byteOffset": 0
    },
    {
      "buffer": 0,
      "byteLength": 647244,
      "byteOffset": 647244
    },
    {
      "buffer": 0,
      "byteLength": 431496,
      "byteOffset": 1294488
    },
    {
      "buffer": 0,
      "byteLength": 644340,
      "byteOffset": 1725984
    }
  ],
  "samplers": [
    {
      "magFilter": 9729,
      "minFilter": 9987
    }
  ],
  "buffers": [
    {
      "byteLength": 2370324,
      "uri": "blue_floor_tiles_01.bin"
    }
  ]
}